<svg version="1.1" id="zs_block" xmlns="http://www.w3.org/2000/svg" xmlns:xlink="http://www.w3.org/1999/xlink" x="0px" y="0px" width="72px" height="62px" viewBox="0 0 72 62" enable-background="new 0 0 72 62" xml:space="preserve" preserveAspectRatio="xMinYMin"> 
	<g id="character"> 
		<path fill="#582025" stroke="#7B2129" stroke-width="0.11" stroke-miterlimit="10" d="M51.27 25.655c-4.029-0.07-7.27-2.43-7.27-5.33 0-2.94 3.34-5.33 7.471-5.33 2.629 0 4.949 0.97 6.271 2.44l10.17-4.68c-3.149-5.01-9.33-8.42-16.438-8.42 -2.652 0-47.473 0-47.473 0v10.66h26.67L4 46.995v10.67c0 0 46.66 0 46.67 0 9.57 0 17.33-7.16 17.33-16C68 33.016 60.561 25.955 51.27 25.655zM50.67 46.995c-0.01 0-33.33 0-33.33 0l16.97-20.37c2.78 5.551 9.12 9.49 16.56 9.69 3.59 0.09 6.47 2.449 6.47 5.34C57.33 44.604 54.35 46.995 50.67 46.995z"/> 
	</g> 
</svg>